<?xml version="1.0" encoding="utf-8"?>
<!-- Generator: Adobe Illustrator 24.1.0, SVG Export Plug-In . SVG Version: 6.00 Build 0)  -->
<svg version="1.1" id="Layer_1" xmlns="http://www.w3.org/2000/svg" xmlns:xlink="http://www.w3.org/1999/xlink" x="0px" y="0px"
	 viewBox="0 0 204.5 51.7" style="enable-background:new 0 0 204.5 51.7;" xml:space="preserve">
<style type="text/css">
	.st0{fill:url(#SVGID_1_);}
	.st1{fill:url(#SVGID_2_);}
	.st2{fill:url(#SVGID_3_);}
	.st3{display:none;fill:#FFFFFF;}
	.st4{font-family:'Montserrat-Bold';}
	.st5{font-size:36px;}
</style>
<g>
	<linearGradient id="SVGID_1_" gradientUnits="userSpaceOnUse" x1="28.7598" y1="27.1737" x2="11.8723" y2="3.0557">
		<stop  offset="0" style="stop-color:#000000"/>
		<stop  offset="3.587410e-02" style="stop-color:#1E0000"/>
		<stop  offset="7.017671e-02" style="stop-color:#350000"/>
		<stop  offset="9.202450e-02" style="stop-color:#3D0000"/>
		<stop  offset="0.1969" style="stop-color:#4F0505"/>
		<stop  offset="0.4061" style="stop-color:#7C1414"/>
		<stop  offset="0.6976" style="stop-color:#C52A2A"/>
		<stop  offset="0.7914" style="stop-color:#DE3232"/>
		<stop  offset="0.8814" style="stop-color:#E73232"/>
		<stop  offset="1" style="stop-color:#FA3232"/>
	</linearGradient>
	<path class="st0" d="M46.6,14.7c-8.7-4.2-16.7-8-25.4-12.3c-1.5-0.7-3-1.1-4.4-1.1c-1.6,0-3,0.4-4.3,1.3C11.3,3.4,10.3,4.5,9.6,6
		c-0.7,1.5-1.2,3.3-1.2,5.4l0,23.7c0.1,1.1,0.4,1.8,1,2.1c0.7,0.4,1.7,0.2,2.6-0.4l2.6-1.6l0.2-0.1l0.1-24c0-1.2-0.1-2.4,1.1-3.1
		c0.3-0.2,0.7-0.3,1-0.3c0.4,0,0.8,0.1,1.3,0.3l22.2,10.7l3.8-2.4L46.6,14.7z"/>
	<linearGradient id="SVGID_2_" gradientUnits="userSpaceOnUse" x1="12.6593" y1="29.181" x2="46.0494" y2="27.4311">
		<stop  offset="0" style="stop-color:#000000"/>
		<stop  offset="0" style="stop-color:#000000"/>
		<stop  offset="4.171119e-02" style="stop-color:#210404"/>
		<stop  offset="8.496324e-02" style="stop-color:#3B0808"/>
		<stop  offset="0.1236" style="stop-color:#4B0A0A"/>
		<stop  offset="0.1534" style="stop-color:#510B0B"/>
		<stop  offset="0.7669" style="stop-color:#CD3232"/>
		<stop  offset="0.8378" style="stop-color:#D63232"/>
		<stop  offset="0.9531" style="stop-color:#EE3232"/>
		<stop  offset="1" style="stop-color:#FA3232"/>
	</linearGradient>
	<path class="st1" d="M13.8,50.4c0-2.5,0-5,0-7.4l23.6-14.6c0.9-0.6,1.6-1.4,1.5-2.2c0-0.6-0.5-1.3-1.5-1.8L14.8,13.2l0-2.9
		c0-0.6,0.2-1.2,0.4-1.6c0.3-0.6,1.1-1,1.7-1c0.4,0,0.8,0.1,1.3,0.3l13.8,6.6l9.2,4.5c1.7,0.8,2.9,1.9,3.7,3.1c0.6,1,1,2.1,1,3.3
		c0,1.1-0.2,2.2-0.7,3.3c-0.8,1.7-2.3,3.4-4.5,4.7c-8.6,5.4-15.4,9.6-24,15L13.8,50.4z"/>
	<linearGradient id="SVGID_3_" gradientUnits="userSpaceOnUse" x1="21.7863" y1="15.8194" x2="8.3898" y2="44.5481">
		<stop  offset="0" style="stop-color:#000000"/>
		<stop  offset="2.286763e-02" style="stop-color:#120000"/>
		<stop  offset="5.806142e-02" style="stop-color:#280000"/>
		<stop  offset="9.192137e-02" style="stop-color:#360000"/>
		<stop  offset="0.1227" style="stop-color:#3A0000"/>
		<stop  offset="0.2571" style="stop-color:#570909"/>
		<stop  offset="0.5462" style="stop-color:#9F2020"/>
		<stop  offset="0.7546" style="stop-color:#D73232"/>
		<stop  offset="0.8444" style="stop-color:#E03232"/>
		<stop  offset="0.9905" style="stop-color:#F83232"/>
		<stop  offset="1" style="stop-color:#FA3232"/>
	</linearGradient>
	<path class="st2" d="M41.1,26c-2.2-1.1-4.5-2.2-6.7-3.2L12,36.8c-0.9,0.6-1.9,0.8-2.6,0.4c-0.5-0.3-0.9-1-1-2.1l0.1-24.7L2,6.6
		c0,11.6,0.1,18.1,0,29.6c0,1.9,0.4,3.4,1.2,4.7c0.6,1,1.5,1.8,2.5,2.4c1,0.5,2.1,0.8,3.3,0.8c1.9,0,4-0.6,6.2-2
		C23.9,36.8,32.5,31.4,41.1,26L41.1,26z"/>
</g>
<text transform="matrix(1 0 0 1 55.5027 37.4092)" class="st3 st4 st5">TopFlix</text>
<image style="overflow:visible;" width="785" height="205" xlink:href="../../../../../../../Desktop/logo.png"  transform="matrix(0.24 0 0 0.24 5.3219 1.0295)">
</image>
</svg>
