<?xml version="1.0" encoding="utf-8"?>
<!-- Generator: Adobe Illustrator 24.1.0, SVG Export Plug-In . SVG Version: 6.00 Build 0)  -->
<svg version="1.1" id="Livello_1" xmlns="http://www.w3.org/2000/svg" xmlns:xlink="http://www.w3.org/1999/xlink" x="0px" y="0px"
	 viewBox="0 0 204.5 51.7" style="enable-background:new 0 0 204.5 51.7;" xml:space="preserve">
<style type="text/css">
	.st0{display:none;}
	.st1{display:inline;fill:#000DFF;}
	.st2{fill:url(#SVGID_1_);}
	.st3{fill:url(#SVGID_2_);}
	.st4{fill:url(#SVGID_3_);}
	.st5{fill:#FFFFFF;}
	.st6{font-family:'Montserrat-Bold';}
	.st7{font-size:40.2151px;}
</style>
<g id="Livello_2_1_" class="st0">
	<rect x="39.9" class="st1" width="164.5" height="51.7"/>
</g>
<g id="Layer_1">
	<g>
		
			<linearGradient id="SVGID_1_" gradientUnits="userSpaceOnUse" x1="30.5249" y1="1053.1661" x2="13.34" y2="1028.6235" gradientTransform="matrix(1 0 0 1 0 -1026)">
			<stop  offset="0" style="stop-color:#000000"/>
			<stop  offset="3.587410e-02" style="stop-color:#1E0000"/>
			<stop  offset="7.017671e-02" style="stop-color:#350000"/>
			<stop  offset="9.202450e-02" style="stop-color:#3D0000"/>
			<stop  offset="0.1969" style="stop-color:#4F0505"/>
			<stop  offset="0.4061" style="stop-color:#7C1414"/>
			<stop  offset="0.6976" style="stop-color:#C52A2A"/>
			<stop  offset="0.7914" style="stop-color:#DE3232"/>
			<stop  offset="0.8814" style="stop-color:#E73232"/>
			<stop  offset="1" style="stop-color:#FA3232"/>
		</linearGradient>
		<path class="st2" d="M48.7,14.5c-8.8-4.3-17-8.2-25.8-12.5c-1.5-0.8-3.1-1.1-4.5-1.1c-1.6,0-3.1,0.5-4.4,1.3c-1.2,0.8-2.3,2-3,3.4
			C10.3,7.1,9.8,9,9.8,11.1v24.1c0.1,1.2,0.5,1.9,1,2.2c0.7,0.4,1.7,0.2,2.7-0.4l2.6-1.6l0.2-0.1l0.1-24.4c0-1.2-0.1-2.4,1.1-3.1
			c0.3-0.2,0.7-0.3,1-0.3c0.4,0,0.9,0.1,1.4,0.4l22.6,10.9l3.8-2.4L48.7,14.5z"/>
		
			<linearGradient id="SVGID_2_" gradientUnits="userSpaceOnUse" x1="14.0703" y1="1055.2446" x2="48.0482" y2="1053.464" gradientTransform="matrix(1 0 0 1 0 -1026)">
			<stop  offset="0" style="stop-color:#000000"/>
			<stop  offset="0" style="stop-color:#000000"/>
			<stop  offset="4.171119e-02" style="stop-color:#210404"/>
			<stop  offset="8.496323e-02" style="stop-color:#3B0808"/>
			<stop  offset="0.1236" style="stop-color:#4B0A0A"/>
			<stop  offset="0.1534" style="stop-color:#510B0B"/>
			<stop  offset="0.7669" style="stop-color:#CD3232"/>
			<stop  offset="0.8378" style="stop-color:#D63232"/>
			<stop  offset="0.9531" style="stop-color:#EE3232"/>
			<stop  offset="1" style="stop-color:#FA3232"/>
		</linearGradient>
		<path class="st3" d="M15.2,50.8c0-2.5,0-5.1,0-7.5l24-14.9c1-0.6,1.6-1.4,1.6-2.2c0-0.6-0.5-1.3-1.5-1.9L16.2,13l0.1-2.9
			c0-0.6,0.2-1.2,0.4-1.6c0.3-0.6,1.1-1.1,1.8-1.1c0.4,0,0.9,0.1,1.4,0.4l14,6.8l9.4,4.6c1.7,0.8,3,1.9,3.8,3.2c0.7,1,1,2.2,1,3.4
			c0,1.1-0.2,2.3-0.7,3.4c-0.8,1.7-2.4,3.4-4.6,4.8c-8.7,5.5-15.7,9.8-24.4,15.2L15.2,50.8z"/>
		
			<linearGradient id="SVGID_3_" gradientUnits="userSpaceOnUse" x1="23.3774" y1="1041.6622" x2="9.7452" y2="1070.8966" gradientTransform="matrix(1 0 0 1 0 -1026)">
			<stop  offset="0" style="stop-color:#000000"/>
			<stop  offset="2.286763e-02" style="stop-color:#120000"/>
			<stop  offset="5.806142e-02" style="stop-color:#280000"/>
			<stop  offset="9.192137e-02" style="stop-color:#360000"/>
			<stop  offset="0.1227" style="stop-color:#3A0000"/>
			<stop  offset="0.2571" style="stop-color:#570909"/>
			<stop  offset="0.5462" style="stop-color:#9F2020"/>
			<stop  offset="0.7546" style="stop-color:#D73232"/>
			<stop  offset="0.8444" style="stop-color:#E03232"/>
			<stop  offset="0.9905" style="stop-color:#F83232"/>
			<stop  offset="1" style="stop-color:#FA3232"/>
		</linearGradient>
		<path class="st4" d="M43,26c-2.3-1.1-4.6-2.2-6.8-3.3L13.4,37c-1,0.6-1.9,0.8-2.7,0.4c-0.6-0.3-0.9-1-1-2.2L9.8,10L3.3,6.3
			c0,11.8,0.1,18.4,0,30.2c0,1.9,0.4,3.5,1.2,4.8c0.7,1,1.5,1.9,2.6,2.4c1,0.5,2.1,0.8,3.3,0.8c1.9,0,4.1-0.6,6.4-2
			C25.5,36.9,34.3,31.5,43,26L43,26z"/>
	</g>
</g>
<text transform="matrix(1 0 0 1 51.3758 39.2965)" class="st5 st6 st7">TopFlix</text>
</svg>
